<svg xmlns="http://www.w3.org/2000/svg" width="82" height="22" fill="none"><path fill="#fff" d="M1.495 4.659H0V.14h1.561q.705 0 1.207.271.5.27.769.775.267.503.267 1.204 0 .705-.27 1.216a1.85 1.85 0 0 1-.785.78q-.516.272-1.254.272m-.908-.485h.87q.6 0 .996-.217.396-.216.59-.615.193-.4.193-.95t-.191-.943A1.35 1.35 0 0 0 2.472.84Q2.091.626 1.524.626H.587zM6.236 4.73q-.525 0-.906-.217a1.5 1.5 0 0 1-.584-.609 1.96 1.96 0 0 1-.204-.913q0-.52.204-.917.206-.4.572-.623.369-.225.861-.225.285 0 .561.089.277.088.504.286t.362.521q.135.324.135.799v.22H4.94v-.45h2.233a1.05 1.05 0 0 0-.123-.512.9.9 0 0 0-.345-.355 1 1 0 0 0-.526-.13q-.333 0-.577.155a1.04 1.04 0 0 0-.371.397q-.13.244-.13.525v.3q0 .383.142.65.144.265.4.404.255.137.593.137.22 0 .398-.058a.9.9 0 0 0 .31-.176.8.8 0 0 0 .2-.296l.54.142q-.085.255-.286.45a1.4 1.4 0 0 1-.497.3q-.296.105-.665.105M11.164 2.03l-.502.132a.9.9 0 0 0-.14-.227.7.7 0 0 0-.245-.186.95.95 0 0 0-.4-.073q-.333 0-.556.144-.22.141-.22.36 0 .193.151.306.152.113.474.188l.539.123q.488.11.726.338.24.225.24.58 0 .29-.18.52a1.2 1.2 0 0 1-.497.362 1.9 1.9 0 0 1-.743.132q-.556 0-.92-.225a1 1 0 0 1-.462-.657l.53-.123q.075.273.286.41.213.137.556.137.39 0 .62-.155.232-.157.232-.375a.38.38 0 0 0-.133-.295q-.132-.122-.406-.181l-.606-.133q-.5-.11-.733-.342a.8.8 0 0 1-.232-.584.8.8 0 0 1 .172-.507q.176-.222.476-.347.302-.126.686-.126.54 0 .847.221.31.22.44.582M12.07 4.659V1.27h.559v3.388zm.285-3.953a.4.4 0 0 1-.282-.104.32.32 0 0 1-.116-.25q0-.145.116-.248A.4.4 0 0 1 12.355 0q.162 0 .279.104a.32.32 0 0 1 0 .498.4.4 0 0 1-.28.104M15.118 6q-.405 0-.695-.097a1.5 1.5 0 0 1-.485-.252 1.4 1.4 0 0 1-.305-.33l.444-.292q.076.093.192.212.116.12.317.21.204.09.532.09.44 0 .727-.198.286-.2.286-.622v-.689h-.047q-.062.093-.175.23a1 1 0 0 1-.322.24q-.209.104-.563.104-.44 0-.79-.194a1.4 1.4 0 0 1-.552-.565q-.2-.37-.2-.9 0-.521.196-.907.196-.387.546-.6a1.5 1.5 0 0 1 .81-.214q.354 0 .562.11.21.109.322.248.114.136.175.225h.057V1.27h.54v3.485q0 .437-.214.71-.21.276-.567.404-.355.13-.79.13M15.1 4.138q.337 0 .568-.143a.9.9 0 0 0 .353-.413q.12-.27.12-.644 0-.367-.118-.646a1 1 0 0 0-.35-.44 1 1 0 0 0-.573-.158 1 1 0 0 0-.591.168 1.03 1.03 0 0 0-.352.45 1.6 1.6 0 0 0-.116.626q0 .354.118.624.12.27.355.424.236.152.586.152M18.27 2.62V4.66h-.559V1.27h.54V1.8h.047a1 1 0 0 1 .388-.415q.26-.159.672-.159.369 0 .646.142a1 1 0 0 1 .43.423q.154.282.154.715v2.153h-.558V2.54q0-.399-.223-.622-.222-.225-.61-.225-.268 0-.478.108a.8.8 0 0 0-.329.316 1 1 0 0 0-.12.503M23.132 4.73q-.525 0-.906-.217a1.5 1.5 0 0 1-.585-.609 1.96 1.96 0 0 1-.203-.913q0-.52.203-.917.206-.4.573-.623.369-.225.861-.225.285 0 .56.089.277.088.505.286t.361.521q.135.324.135.799v.22h-2.8v-.45h2.233a1.05 1.05 0 0 0-.123-.512.9.9 0 0 0-.346-.355 1 1 0 0 0-.525-.13q-.333 0-.577.155-.241.151-.372.397-.13.244-.13.525v.3q0 .383.142.65.145.265.4.404.255.137.594.137.22 0 .397-.058a.796.796 0 0 0 .511-.472l.54.142q-.086.255-.287.45-.202.19-.496.3-.297.105-.665.105M26.858 4.73a1.5 1.5 0 0 1-.802-.215 1.5 1.5 0 0 1-.544-.608 2.1 2.1 0 0 1-.197-.933q0-.534.197-.927.196-.393.546-.607a1.5 1.5 0 0 1 .81-.214q.354 0 .56.11a.95.95 0 0 1 .317.248q.111.136.173.225h.047V.14h.558V4.66h-.54v-.52h-.065q-.062.092-.175.233a1 1 0 0 1-.324.25q-.21.107-.561.107m.075-.468a.96.96 0 0 0 .568-.163q.232-.165.353-.457t.12-.677q0-.38-.118-.664a.97.97 0 0 0-.35-.446 1 1 0 0 0-.573-.16 1 1 0 0 0-.59.169 1 1 0 0 0-.353.457 1.7 1.7 0 0 0-.116.644q0 .36.118.657.12.294.355.468a.97.97 0 0 0 .586.172M32.87 4.72q-.48 0-.824-.163a1.26 1.26 0 0 1-.532-.447 1.16 1.16 0 0 1-.187-.651q0-.282.127-.5a1.6 1.6 0 0 1 .358-.409 5 5 0 0 1 .527-.38l.7-.485a1.4 1.4 0 0 0 .33-.269.55.55 0 0 0 .125-.375q0-.172-.163-.333a.57.57 0 0 0-.424-.16.6.6 0 0 0-.326.087.65.65 0 0 0-.22.22.53.53 0 0 0-.078.274q0 .16.092.322.094.162.239.331.146.168.303.344L35.14 4.66h-.672l-1.835-2.065-.464-.52a2.5 2.5 0 0 1-.331-.461 1 1 0 0 1-.123-.492q0-.304.144-.534a1 1 0 0 1 .41-.36 1.4 1.4 0 0 1 .62-.13q.363 0 .626.132.263.13.405.347a.83.83 0 0 1 .142.465.93.93 0 0 1-.173.563 1.9 1.9 0 0 1-.47.443l-.966.67q-.327.225-.443.437t-.115.305q0 .212.118.395t.333.295.504.113q.274 0 .535-.108.26-.111.47-.318.214-.207.337-.498.125-.292.125-.656h.54q0 .45-.112.735a1.5 1.5 0 0 1-.25.446 3 3 0 0 1-.225.24l-.052.066-.052.066a1.45 1.45 0 0 1-.592.366 2.2 2.2 0 0 1-.705.12M41.077 4.659H39.58V.14h1.562q.705 0 1.206.271.502.27.77.775.267.503.267 1.204 0 .705-.27 1.216a1.85 1.85 0 0 1-.786.78q-.515.272-1.253.272m-.909-.485h.87q.601 0 .997-.217.395-.216.589-.615.195-.4.194-.95 0-.549-.192-.943a1.35 1.35 0 0 0-.572-.609q-.38-.214-.949-.214h-.937zM45.818 4.73q-.526 0-.907-.217a1.5 1.5 0 0 1-.584-.609 1.96 1.96 0 0 1-.203-.913q0-.52.203-.917.206-.4.573-.623.37-.225.86-.225.285 0 .562.089.276.088.503.286.228.197.362.521.135.324.135.799v.22h-2.8v-.45h2.232a1.05 1.05 0 0 0-.123-.512.9.9 0 0 0-.345-.355 1 1 0 0 0-.525-.13q-.334 0-.578.155-.24.151-.37.397-.132.244-.131.525v.3q0 .383.142.65.145.265.4.404.255.137.594.137.22 0 .397-.058a.796.796 0 0 0 .511-.472l.54.142q-.086.255-.287.45a1.4 1.4 0 0 1-.497.3q-.295.105-.664.105M51.032 1.27 49.69 4.66h-.568L47.777 1.27h.606l1.003 2.7h.038l1.003-2.7zM53.163 4.73q-.525 0-.906-.217a1.5 1.5 0 0 1-.585-.609 1.96 1.96 0 0 1-.203-.913q0-.52.203-.917.205-.4.573-.623.37-.225.86-.225.285 0 .562.089.276.088.503.286.228.197.362.521.135.324.135.799v.22h-2.8v-.45H54.1a1.05 1.05 0 0 0-.123-.512.9.9 0 0 0-.346-.355 1 1 0 0 0-.525-.13q-.334 0-.577.155a1.04 1.04 0 0 0-.372.397q-.13.244-.13.525v.3q0 .383.142.65.144.265.4.404.255.137.594.137.22 0 .397-.058a.9.9 0 0 0 .31-.176.8.8 0 0 0 .201-.296l.54.142q-.086.255-.287.45-.201.19-.497.3-.295.105-.664.105M56.075.141V4.66h-.558V.14zM58.574 4.73q-.492 0-.864-.219a1.5 1.5 0 0 1-.577-.611 1.95 1.95 0 0 1-.206-.918q0-.529.206-.924a1.5 1.5 0 0 1 .577-.613q.372-.219.864-.219t.86.219q.372.218.578.613.208.394.208.924 0 .525-.208.918-.206.393-.577.611a1.66 1.66 0 0 1-.861.218m0-.468q.373 0 .615-.179.24-.179.357-.47a1.7 1.7 0 0 0 .116-.63q0-.34-.116-.634a1.07 1.07 0 0 0-.357-.474q-.242-.18-.615-.18-.374 0-.615.18t-.358.474a1.7 1.7 0 0 0-.115.633q0 .34.115.631.117.291.358.47.24.18.615.179M61.073 5.93V1.27h.539v.539h.066q.062-.089.17-.225a1 1 0 0 1 .318-.247q.207-.11.563-.11.458 0 .809.213.35.214.546.607.197.392.197.927 0 .538-.197.933-.196.392-.544.608a1.5 1.5 0 0 1-.802.214q-.35 0-.56-.108a1 1 0 0 1-.325-.249 3 3 0 0 1-.175-.234h-.047V5.93zm.548-2.965q0 .384.121.677.12.29.352.457a.96.96 0 0 0 .568.163.96.96 0 0 0 .585-.172q.236-.174.355-.468.12-.296.12-.657 0-.358-.118-.644a1 1 0 0 0-.353-.457.98.98 0 0 0-.589-.17 1 1 0 0 0-.572.161.97.97 0 0 0-.35.446 1.7 1.7 0 0 0-.119.664M66.656 4.73q-.525 0-.906-.217a1.5 1.5 0 0 1-.585-.609 1.96 1.96 0 0 1-.203-.913q0-.52.203-.917.206-.4.573-.623.37-.225.86-.225.285 0 .562.089.276.088.504.286.226.197.361.521t.135.799v.22h-2.8v-.45h2.233a1.05 1.05 0 0 0-.124-.512.9.9 0 0 0-.345-.355 1 1 0 0 0-.525-.13q-.334 0-.577.155a1.04 1.04 0 0 0-.372.397q-.13.244-.13.525v.3q0 .383.142.65.144.265.4.404.255.137.594.137.22 0 .397-.058a.9.9 0 0 0 .31-.176.8.8 0 0 0 .201-.296l.54.142q-.086.255-.287.45a1.4 1.4 0 0 1-.496.3q-.297.105-.665.105M70.382 4.73a1.5 1.5 0 0 1-.802-.215 1.47 1.47 0 0 1-.544-.608 2.1 2.1 0 0 1-.197-.933q0-.534.197-.927.196-.393.546-.607a1.5 1.5 0 0 1 .81-.214q.354 0 .56.11a.95.95 0 0 1 .317.248q.111.136.173.225h.047V.14h.558V4.66h-.54v-.52h-.065q-.062.092-.175.233a1 1 0 0 1-.325.25q-.21.107-.56.107m.075-.468a.96.96 0 0 0 .568-.163 1.03 1.03 0 0 0 .353-.457q.12-.293.12-.677 0-.38-.118-.664a.97.97 0 0 0-.35-.446 1 1 0 0 0-.573-.16 1 1 0 0 0-.591.169 1 1 0 0 0-.352.457 1.7 1.7 0 0 0-.116.644q0 .36.118.657.12.294.355.468a.97.97 0 0 0 .587.172M75.097 4.659V.14h.558V1.81h.047q.062-.089.17-.225a1 1 0 0 1 .318-.247q.208-.11.563-.11.459 0 .809.213.35.214.546.607.197.392.197.927 0 .538-.197.933-.195.392-.544.608a1.5 1.5 0 0 1-.802.214q-.35 0-.56-.108a1 1 0 0 1-.325-.249 3 3 0 0 1-.175-.234h-.066v.52zm.549-1.694q0 .384.12.677.12.29.353.457a.96.96 0 0 0 .567.163.96.96 0 0 0 .585-.172q.237-.174.355-.468.12-.296.12-.657 0-.358-.118-.644a1 1 0 0 0-.352-.457.98.98 0 0 0-.59-.17 1 1 0 0 0-.572.161.97.97 0 0 0-.35.446 1.7 1.7 0 0 0-.118.664M79.388 5.93a1.3 1.3 0 0 1-.407-.062l.142-.46q.204.05.36.036a.44.44 0 0 0 .277-.13q.123-.115.224-.373l.105-.265-1.344-3.405h.605l1.003 2.7h.038l1.003-2.7H82l-1.543 3.882q-.104.263-.257.435a.96.96 0 0 1-.358.258 1.2 1.2 0 0 1-.454.083"/><path fill="#0084FE" d="M12.386 20.54c.005-1.335-1.796-1.525-2.242-.366l-.144.06v.594l.147.056c.445 1.17 2.233.971 2.238-.343"/><path fill="#0084FE" d="M12.5 20.378c-.12-1.358-2.127-1.48-2.498-.145l.144-.06c.446-1.16 2.247-.97 2.242.366-.005 1.314-1.794 1.513-2.239.343l-.146-.056c.48 1.477 2.638 1.152 2.497-.449"/><path fill="#FE5B00" d="M18.537 15.852c-.623.109-.602.846-.77 1.309-.364.997-1.216 1.875-2.213 2.242-.278.102-.598.127-.846.224-.87.339-.62 1.558.368 1.498 1.918-.116 4.201-2.398 4.366-4.307.05-.586-.265-1.078-.905-.966"/><path fill="#FEC000" d="M12.463 12.51c-.417-1.223-2.095-1.063-2.463.117v.594c.484 1.723 3.03.954 2.463-.711M15.14 12.243c-.786 0-.684.67-.82 1.17-.295 1.096-.85 1.87-1.944 2.273-.602.222-1.786.108-1.76 1.001.031 1.114 1.597.63 2.223.412 1.413-.491 2.412-1.55 2.834-2.986.185-.63.51-1.87-.534-1.87M18.838 11.63c-1.91.098-1.307 3.193.578 2.425 1.247-.509.82-2.495-.578-2.424"/><path fill="#fff" d="M25.634 11.876q1.806 0 2.773.636.967.635.967 2.079c0 .962-.327 1.671-.98 2.102q-.977.646-2.795.647h-.571v2.703h-1.817v-7.958q.595-.116 1.258-.163t1.165-.047zm.116 1.55q-.198 0-.39.011-.192.012-.332.024v2.33h.57q.945 0 1.422-.256.477-.257.477-.956 0-.338-.122-.56a.93.93 0 0 0-.349-.354 1.6 1.6 0 0 0-.553-.187 4.6 4.6 0 0 0-.723-.052M32.568 13.75q.769 0 1.281.174.513.176.821.501.309.326.437.792.129.467.128 1.037v3.612q-.372.082-1.037.192t-1.608.11q-.594 0-1.078-.105-.483-.105-.833-.344a1.57 1.57 0 0 1-.535-.623q-.186-.385-.187-.945c0-.373.072-.66.215-.909q.216-.372.577-.594.361-.22.828-.32.465-.099.967-.099.338 0 .6.029.263.03.426.075v-.163q0-.443-.268-.71-.27-.27-.933-.27-.442 0-.874.065a3.8 3.8 0 0 0-.746.18l-.221-1.398q.15-.047.378-.099t.496-.093.565-.07a6 6 0 0 1 .6-.029zm.14 5.08q.256 0 .489-.012t.372-.035v-1.317a3 3 0 0 0-.315-.046 3.4 3.4 0 0 0-.844.005q-.216.029-.38.11a.65.65 0 0 0-.256.222.6.6 0 0 0-.093.349q0 .407.273.565.274.157.752.157zM39.253 20.158q-.758-.012-1.23-.164-.472-.151-.745-.425a1.4 1.4 0 0 1-.373-.664 3.6 3.6 0 0 1-.098-.88V11.28l1.735-.28v6.676q0 .232.035.419t.134.315a.7.7 0 0 0 .285.21q.187.081.5.105l-.244 1.433M46.601 20.074a41 41 0 0 0-1.69-2.738q-.908-1.351-1.934-2.551v5.289h-1.793V12h1.48q.385.384.85.944t.95 1.194q.483.636.96 1.317.478.681.898 1.311v-4.765h1.805v8.074zM49.586 17.052q0-.815.25-1.428.25-.611.659-1.02.408-.406.938-.617t1.09-.21q1.303 0 2.061.798t.758 2.348q0 .151-.012.332-.011.18-.023.32h-3.938q.06.535.5.85.444.316 1.189.316.477 0 .938-.087.459-.088.75-.216l.234 1.41a2.4 2.4 0 0 1-.372.14 5 5 0 0 1-.52.122q-.285.053-.611.087a6 6 0 0 1-.652.035q-.828 0-1.439-.245a2.8 2.8 0 0 1-1.014-.67 2.66 2.66 0 0 1-.594-1.008 4 4 0 0 1-.192-1.258zm4.079-.664a1.8 1.8 0 0 0-.076-.43 1.039 1.039 0 0 0-.537-.64 1.1 1.1 0 0 0-.507-.107c-.202 0-.36.033-.5.1q-.21.098-.35.261-.14.165-.215.379-.074.216-.11.437zM58.438 18.825q.477 0 .676-.093.197-.094.198-.36 0-.21-.257-.368a5 5 0 0 0-.78-.355 8 8 0 0 1-.74-.314 2.2 2.2 0 0 1-.565-.39 1.6 1.6 0 0 1-.36-.543 2 2 0 0 1-.13-.757q0-.862.642-1.363.641-.5 1.758-.5.56 0 1.072.098.512.1.815.215l-.303 1.352a7 7 0 0 0-.659-.187 3.6 3.6 0 0 0-.797-.082q-.817 0-.816.454 0 .106.035.187t.14.157q.104.075.285.163.18.088.46.195.57.211.945.416.372.206.588.444t.304.53q.087.29.087.673 0 .907-.682 1.371-.681.465-1.929.465-.815 0-1.358-.14a5.4 5.4 0 0 1-.75-.233l.291-1.41q.442.175.91.273.465.1.92.1zM62.27 12.417l1.736-.28v1.805h2.085v1.445h-2.085v2.155q0 .548.192.874.192.327.774.327a3.3 3.3 0 0 0 1.12-.198l.245 1.351q-.315.129-.7.222a4 4 0 0 1-.944.093q-.711 0-1.176-.192a1.85 1.85 0 0 1-.746-.535 2 2 0 0 1-.39-.833 5 5 0 0 1-.11-1.083zM72.999 16.994q0 .722-.21 1.322t-.606 1.026-.95.659q-.552.233-1.24.233c-.459 0-.86-.077-1.23-.233a2.7 2.7 0 0 1-.95-.659 3 3 0 0 1-.617-1.026q-.22-.6-.221-1.322 0-.724.227-1.317.227-.594.629-1.014t.955-.652q.555-.233 1.207-.234c.434 0 .848.078 1.217.234q.555.233.95.652.396.42.617 1.014t.222 1.317m-1.772 0q0-.803-.32-1.265-.321-.46-.914-.46-.595 0-.921.46t-.327 1.265q0 .802.327 1.276.326.471.92.472.596 0 .915-.472t.32-1.276"/></svg>