<svg xmlns="http://www.w3.org/2000/svg" width="202" height="17" fill="none"><path fill="#fff" d="M2.75 12H.057V3.273h2.812q1.27 0 2.173.524a3.43 3.43 0 0 1 1.385 1.496q.482.971.482 2.326 0 1.364-.486 2.348a3.46 3.46 0 0 1-1.415 1.509Q4.08 12 2.75 12m-1.637-.937h1.569q1.082 0 1.794-.418a2.57 2.57 0 0 0 1.06-1.189q.35-.77.35-1.837 0-1.056-.345-1.82A2.55 2.55 0 0 0 4.51 4.625Q3.823 4.21 2.8 4.21H1.113zM11.29 12.136q-.946 0-1.633-.417a2.8 2.8 0 0 1-1.052-1.176q-.367-.759-.367-1.765t.367-1.772q.37-.772 1.031-1.202.665-.435 1.551-.435.512 0 1.01.17.499.172.908.555.41.38.652 1.005.243.627.243 1.543v.426H8.954v-.87h4.023q0-.553-.222-.988a1.67 1.67 0 0 0-.622-.686 1.74 1.74 0 0 0-.946-.251q-.6 0-1.04.298-.434.294-.668.767a2.25 2.25 0 0 0-.235 1.014v.58q0 .741.256 1.257.26.51.72.78a2.1 2.1 0 0 0 1.07.264q.395 0 .716-.11.323-.116.558-.342.234-.23.362-.57l.972.272q-.154.495-.516.87-.363.37-.895.579a3.3 3.3 0 0 1-1.197.204M20.166 6.92l-.903.256a1.7 1.7 0 0 0-.252-.439 1.2 1.2 0 0 0-.443-.358q-.281-.14-.72-.14-.6 0-1.002.277-.396.272-.396.694 0 .375.273.593.273.216.852.362l.972.238q.878.213 1.308.652.43.435.43 1.121 0 .562-.323 1.006a2.15 2.15 0 0 1-.895.699q-.576.255-1.338.255-1.001 0-1.658-.434-.657-.435-.831-1.27l.954-.239q.137.53.516.793.384.264 1.002.264.702 0 1.116-.298.417-.303.418-.725a.76.76 0 0 0-.24-.57q-.237-.235-.732-.35l-1.09-.256q-.9-.213-1.322-.66-.418-.452-.418-1.13 0-.554.311-.98.315-.426.857-.669a3 3 0 0 1 1.236-.243q.972 0 1.525.426.56.428.793 1.125M21.8 12V5.455h1.005V12zm.51-7.636a.72.72 0 0 1-.507-.2.64.64 0 0 1-.208-.482q0-.281.208-.482a.72.72 0 0 1 .508-.2.7.7 0 0 1 .502.2.64.64 0 0 1 .213.482.64.64 0 0 1-.213.481.7.7 0 0 1-.502.2M27.289 14.59q-.73 0-1.253-.187a2.7 2.7 0 0 1-.873-.485 2.7 2.7 0 0 1-.55-.64l.8-.562q.138.18.346.409.21.234.571.405.366.175.959.175.792 0 1.308-.384.516-.383.516-1.202v-1.33h-.085q-.111.18-.316.444a1.8 1.8 0 0 1-.58.464q-.374.2-1.014.2a2.73 2.73 0 0 1-1.423-.374 2.63 2.63 0 0 1-.993-1.091q-.362-.716-.362-1.739 0-1.005.354-1.751.354-.75.984-1.16.63-.413 1.457-.413.64 0 1.015.213.38.21.58.478.203.263.315.434h.102v-1.04h.971v6.734q0 .844-.383 1.372a2.2 2.2 0 0 1-1.023.78 3.9 3.9 0 0 1-1.423.25m-.034-3.596q.604 0 1.023-.277.417-.276.635-.797.216-.518.217-1.244a3.4 3.4 0 0 0-.213-1.248 1.87 1.87 0 0 0-.631-.848q-.417-.307-1.031-.307-.639 0-1.065.324a1.97 1.97 0 0 0-.636.869 3.4 3.4 0 0 0-.208 1.21q0 .682.213 1.206.218.52.639.818.426.294 1.057.294M32.965 8.063V12h-1.006V5.455h.972v1.022h.085q.231-.499.699-.8.47-.308 1.21-.308.664 0 1.164.273.498.269.775.818.277.546.277 1.38V12h-1.005V7.91q0-.772-.401-1.203-.4-.434-1.1-.434-.48 0-.86.209-.375.208-.593.609-.217.4-.217.971M41.723 12.136q-.946 0-1.632-.417a2.8 2.8 0 0 1-1.053-1.176q-.366-.759-.366-1.765t.367-1.772q.37-.772 1.03-1.202.666-.435 1.552-.435.51 0 1.01.17.499.172.907.555.409.38.653 1.005.242.627.242 1.543v.426h-5.045v-.87h4.023q0-.553-.222-.988a1.67 1.67 0 0 0-.622-.686 1.74 1.74 0 0 0-.946-.251q-.6 0-1.04.298-.435.294-.669.767a2.25 2.25 0 0 0-.234 1.014v.58q0 .741.255 1.257.261.51.72.78a2.1 2.1 0 0 0 1.07.264q.396 0 .716-.11.324-.116.558-.342.235-.23.363-.57l.971.272q-.153.495-.516.87-.362.37-.894.579a3.3 3.3 0 0 1-1.198.204M48.435 12.136a2.56 2.56 0 0 1-1.445-.413q-.626-.417-.98-1.176-.354-.764-.354-1.803 0-1.03.354-1.79.354-.758.985-1.171.63-.414 1.457-.414.64 0 1.01.213.375.21.57.478.201.263.312.434h.085V3.273h1.006V12h-.972v-1.006h-.12q-.11.18-.314.452-.205.269-.584.482-.38.208-1.01.208m.136-.903q.606 0 1.023-.315.417-.32.635-.882.217-.567.217-1.309 0-.732-.213-1.282a1.87 1.87 0 0 0-.63-.861q-.419-.312-1.032-.311-.639 0-1.065.328-.422.324-.635.882-.21.555-.209 1.244 0 .7.213 1.27.217.567.64.904.425.332 1.056.332M59.263 12.12q-.86 0-1.483-.316a2.33 2.33 0 0 1-.959-.865 2.36 2.36 0 0 1-.336-1.257q0-.546.23-.968.234-.425.643-.788.414-.366.95-.733l1.262-.937q.37-.244.592-.52.225-.277.226-.725 0-.332-.294-.643-.29-.31-.763-.311-.332 0-.588.17-.252.167-.396.426-.14.256-.14.529 0 .306.165.622.17.31.43.64l.546.664L63.354 12h-1.21l-3.307-3.989-.835-1.005a4.8 4.8 0 0 1-.597-.89 2.1 2.1 0 0 1-.222-.951 2 2 0 0 1 .26-1.031 1.8 1.8 0 0 1 .738-.695q.477-.252 1.116-.252.657 0 1.13.256.473.251.728.67.256.412.256.898 0 .627-.311 1.087-.312.46-.848.857L58.513 8.25q-.588.435-.797.844t-.209.588q0 .41.213.763.214.353.601.57.388.219.908.218.494 0 .963-.209.468-.213.848-.613.384-.402.605-.964.225-.562.226-1.265h.971q0 .87-.2 1.419-.2.55-.452.86a6 6 0 0 1-.404.465 2 2 0 0 0-.094.128q-.043.064-.094.128a2.6 2.6 0 0 1-1.065.707q-.644.23-1.27.23M74.047 12h-2.693V3.273h2.812q1.27 0 2.173.524a3.43 3.43 0 0 1 1.385 1.496q.482.971.482 2.326 0 1.364-.486 2.348a3.46 3.46 0 0 1-1.415 1.509q-.93.525-2.258.524m-1.637-.937h1.569q1.082 0 1.794-.418a2.57 2.57 0 0 0 1.06-1.189q.35-.77.35-1.837 0-1.056-.345-1.82a2.55 2.55 0 0 0-1.031-1.175q-.686-.414-1.71-.414H72.41zM82.587 12.136q-.946 0-1.633-.417a2.8 2.8 0 0 1-1.052-1.176q-.367-.759-.367-1.765t.367-1.772q.37-.772 1.031-1.202.664-.435 1.551-.435.512 0 1.01.17.498.172.908.555.408.38.652 1.005.243.627.243 1.543v.426H80.25v-.87h4.023q0-.553-.222-.988a1.67 1.67 0 0 0-.622-.686 1.74 1.74 0 0 0-.946-.251q-.6 0-1.04.298-.434.294-.669.767a2.25 2.25 0 0 0-.234 1.014v.58q0 .741.256 1.257.26.51.72.78a2.1 2.1 0 0 0 1.07.264q.396 0 .715-.11.324-.116.559-.342.234-.23.362-.57l.971.272q-.153.495-.515.87-.363.37-.895.579a3.3 3.3 0 0 1-1.198.204M91.98 5.455 89.56 12h-1.024l-2.42-6.545h1.09l1.808 5.216h.068l1.807-5.216zM95.817 12.136q-.946 0-1.632-.417a2.8 2.8 0 0 1-1.053-1.176q-.366-.759-.366-1.765t.366-1.772a2.9 2.9 0 0 1 1.031-1.202q.665-.435 1.552-.435.51 0 1.01.17.498.172.907.555.41.38.652 1.005.243.627.243 1.543v.426h-5.045v-.87h4.022q0-.553-.221-.988a1.67 1.67 0 0 0-.622-.686 1.74 1.74 0 0 0-.946-.251q-.601 0-1.04.298-.435.294-.67.767a2.25 2.25 0 0 0-.233 1.014v.58q0 .741.255 1.257.26.51.72.78.46.264 1.07.264.396 0 .716-.11.324-.116.558-.342.234-.23.362-.57l.972.272q-.153.495-.516.87-.362.37-.895.579a3.3 3.3 0 0 1-1.197.204M101.063 3.273V12h-1.006V3.273zM105.564 12.136q-.887 0-1.556-.421a2.87 2.87 0 0 1-1.039-1.18q-.372-.76-.371-1.774 0-1.022.371-1.785a2.86 2.86 0 0 1 1.039-1.185q.67-.422 1.556-.422t1.551.422q.669.422 1.04 1.185.375.763.375 1.785 0 1.015-.375 1.773-.371.76-1.04 1.18-.664.423-1.551.422m0-.903q.673 0 1.108-.345.434-.345.643-.908a3.5 3.5 0 0 0 .209-1.219q0-.656-.209-1.223a2.07 2.07 0 0 0-.643-.916q-.435-.35-1.108-.35t-1.108.35q-.435.35-.644.916a3.5 3.5 0 0 0-.208 1.223q0 .657.208 1.22.21.562.644.907t1.108.345M110.065 14.455v-9h.971v1.04h.12q.11-.172.307-.435.2-.269.571-.478.375-.213 1.014-.213.827 0 1.457.414.631.413.985 1.172.353.758.353 1.79 0 1.039-.353 1.802-.354.759-.981 1.176a2.56 2.56 0 0 1-1.444.413q-.631 0-1.01-.208a1.9 1.9 0 0 1-.584-.482 7 7 0 0 1-.315-.452h-.086v3.46zm.988-5.728q0 .741.218 1.309.217.562.635.882.417.315 1.022.315.632 0 1.053-.332.426-.337.639-.904.218-.57.218-1.27 0-.69-.214-1.244a1.9 1.9 0 0 0-.634-.882q-.422-.328-1.062-.328-.613 0-1.031.31a1.87 1.87 0 0 0-.63.862q-.214.55-.214 1.282M120.122 12.136q-.947 0-1.632-.417a2.8 2.8 0 0 1-1.053-1.176q-.367-.759-.367-1.765t.367-1.772a2.9 2.9 0 0 1 1.031-1.202q.664-.435 1.551-.435.512 0 1.01.17a2.5 2.5 0 0 1 .908.555q.41.38.652 1.005.243.627.243 1.543v.426h-5.046v-.87h4.023q0-.553-.221-.988a1.67 1.67 0 0 0-.623-.686 1.74 1.74 0 0 0-.946-.251q-.6 0-1.039.298-.435.294-.669.767a2.24 2.24 0 0 0-.235 1.014v.58q0 .741.256 1.257.26.51.72.78a2.1 2.1 0 0 0 1.07.264q.395 0 .716-.11.323-.116.558-.342.234-.23.362-.57l.972.272q-.154.495-.516.87a2.5 2.5 0 0 1-.895.579 3.3 3.3 0 0 1-1.197.204M126.833 12.136a2.56 2.56 0 0 1-1.444-.413q-.627-.417-.98-1.176-.354-.764-.354-1.803 0-1.03.354-1.79.353-.758.984-1.171.63-.414 1.457-.414.64 0 1.01.213.376.21.571.478.201.263.311.434h.086V3.273h1.005V12h-.971v-1.006h-.12q-.11.18-.315.452-.204.269-.584.482-.379.208-1.01.208m.137-.903q.605 0 1.022-.315.418-.32.635-.882.218-.567.218-1.309 0-.732-.213-1.282a1.87 1.87 0 0 0-.631-.861q-.418-.312-1.031-.311-.64 0-1.066.328-.422.324-.635.882-.208.555-.208 1.244 0 .7.213 1.27.217.567.639.904.426.332 1.057.332M135.326 12V3.273h1.006v3.221h.085q.11-.17.307-.434.2-.269.571-.478.375-.213 1.014-.213.826 0 1.458.414.63.413.984 1.172t.354 1.79q0 1.039-.354 1.802-.354.759-.98 1.176a2.56 2.56 0 0 1-1.445.413q-.63 0-1.01-.208a1.9 1.9 0 0 1-.584-.482 7 7 0 0 1-.315-.452h-.119V12zm.989-3.273q0 .741.217 1.309.218.562.635.882.417.315 1.023.315.63 0 1.052-.332.427-.337.64-.904.216-.57.217-1.27 0-.69-.213-1.244a1.9 1.9 0 0 0-.635-.882q-.422-.328-1.061-.328-.614 0-1.031.31a1.86 1.86 0 0 0-.631.862q-.213.55-.213 1.282M143.056 14.455a2.2 2.2 0 0 1-.733-.12l.256-.886q.366.093.648.068a.78.78 0 0 0 .498-.251q.222-.222.405-.72l.188-.512-2.421-6.58h1.091l1.807 5.217h.068l1.807-5.216h1.091l-2.779 7.5a2.8 2.8 0 0 1-.464.839q-.277.336-.644.499a2 2 0 0 1-.818.162"/><path fill="#0084FE" d="M161.383 14.29c.007-1.893-2.546-2.163-3.179-.52l-.204.085v.842l.208.08c.631 1.658 3.167 1.377 3.174-.486z"/><path fill="#0084FE" d="M161.543 14.061c-.17-1.924-3.015-2.098-3.541-.205l.204-.085c.632-1.643 3.185-1.374 3.179.52-.008 1.863-2.543 2.144-3.174.486l-.208-.08c.681 2.094 3.741 1.634 3.541-.637z"/><path fill="#FE5B00" d="M170.105 7.644c-.883.154-.853 1.199-1.092 1.856-.515 1.413-1.724 2.658-3.137 3.179-.394.145-.848.18-1.199.316-1.235.481-.88 2.21.521 2.125 2.72-.164 5.957-3.4 6.191-6.107.072-.83-.376-1.528-1.284-1.37"/><path fill="#FEC000" d="M161.492 2.91c-.591-1.734-2.971-1.507-3.492.166v.842c.686 2.443 4.297 1.353 3.492-1.008M165.285 2.532c-1.112 0-.968.95-1.16 1.66-.419 1.554-1.207 2.65-2.757 3.222-.854.315-2.533.153-2.496 1.42.044 1.579 2.265.891 3.152.583 2.003-.696 3.419-2.199 4.018-4.234.263-.893.724-2.652-.758-2.652zM170.532 1.663c-2.709.138-1.854 4.526.819 3.436 1.768-.72 1.163-3.537-.819-3.436"/><path fill="#fff" d="M178.656 1.458q1.433 0 2.201.504.768.505.768 1.65c0 .765-.259 1.328-.777 1.67q-.777.513-2.22.514h-.453V7.94h-1.443V1.624q.472-.093.999-.13t.925-.037m.092 1.23q-.157 0-.309.01-.153.008-.264.018v1.85h.453q.75 0 1.128-.204.38-.203.379-.758a.9.9 0 0 0-.096-.444.74.74 0 0 0-.278-.282q-.18-.106-.439-.149a3.6 3.6 0 0 0-.574-.04M184.16 2.944q.61 0 1.018.139.406.14.651.397.245.26.347.63.103.369.102.822V7.8q-.295.065-.823.153a8 8 0 0 1-1.277.088q-.471 0-.856-.084a1.9 1.9 0 0 1-.661-.273 1.25 1.25 0 0 1-.425-.495 1.7 1.7 0 0 1-.148-.75c0-.296.057-.523.171-.721q.171-.296.458-.472t.657-.254.768-.078q.267 0 .476.023.208.022.338.06v-.13a.76.76 0 0 0-.213-.565q-.213-.212-.74-.213-.352 0-.694.05a3 3 0 0 0-.592.144l-.176-1.11q.12-.036.301-.078.18-.042.393-.074.212-.033.449-.056.235-.023.476-.023zm.111 4.033q.204 0 .389-.01a3 3 0 0 0 .295-.027V5.895a3 3 0 0 0-.25-.037 2.7 2.7 0 0 0-.67.004 1 1 0 0 0-.301.087.5.5 0 0 0-.204.176.5.5 0 0 0-.074.277q0 .324.218.45.216.124.596.124zM189.467 8.032q-.601-.01-.976-.13a1.44 1.44 0 0 1-.592-.338 1.1 1.1 0 0 1-.295-.527 2.8 2.8 0 0 1-.079-.698V.984l1.378-.222v5.3q0 .184.028.332a.6.6 0 0 0 .106.25.56.56 0 0 0 .226.167q.149.064.398.083l-.195 1.138zM181.033 16.109a32 32 0 0 0-1.341-2.174 22 22 0 0 0-1.536-2.025v4.198h-1.424V9.7h1.175q.306.305.676.75.369.443.753.948.385.504.763 1.045.379.54.713 1.04V9.7h1.433v6.41zM183.402 13.709q0-.648.199-1.133a2.4 2.4 0 0 1 .523-.81q.324-.323.744-.49.421-.167.865-.167 1.036 0 1.637.634.602.633.602 1.863 0 .12-.01.264l-.018.254h-3.126a.92.92 0 0 0 .397.675q.351.25.944.25.379 0 .744-.069.365-.07.596-.17l.185 1.119a2 2 0 0 1-.295.11q-.185.056-.412.098a7 7 0 0 1-.486.069 5 5 0 0 1-.518.028q-.656 0-1.142-.195a2.2 2.2 0 0 1-.805-.532 2.1 2.1 0 0 1-.471-.8 3.2 3.2 0 0 1-.153-.999m3.238-.527a1.4 1.4 0 0 0-.06-.342.83.83 0 0 0-.426-.509.9.9 0 0 0-.402-.083.9.9 0 0 0-.398.078.8.8 0 0 0-.277.208 1 1 0 0 0-.171.3q-.06.172-.087.348h1.822zM190.43 15.118q.379 0 .537-.075.157-.072.157-.286 0-.166-.204-.291a4 4 0 0 0-.619-.282 6 6 0 0 1-.587-.25 1.7 1.7 0 0 1-.449-.31 1.2 1.2 0 0 1-.286-.43 1.6 1.6 0 0 1-.102-.601q0-.685.508-1.082.51-.398 1.396-.398.444 0 .851.079t.648.17l-.241 1.073a5 5 0 0 0-.523-.148 3 3 0 0 0-.633-.065q-.648 0-.648.36 0 .084.028.149a.3.3 0 0 0 .111.125q.082.06.226.13.144.069.366.153.452.168.749.331.296.164.468.352.17.19.241.42.069.232.069.535 0 .72-.542 1.09-.54.368-1.531.368-.648 0-1.078-.111a4 4 0 0 1-.596-.185l.232-1.12q.352.139.721.218.37.078.731.078zM193.471 10.03l1.378-.221v1.433h1.656v1.147h-1.656V14.1q0 .435.153.694t.614.26a2.6 2.6 0 0 0 .889-.158l.194 1.073a3.208 3.208 0 0 1-1.304.25q-.565 0-.934-.153a1.46 1.46 0 0 1-.592-.425 1.6 1.6 0 0 1-.31-.661 4 4 0 0 1-.087-.86v-4.088zM201.989 13.663q0 .573-.166 1.05a2.3 2.3 0 0 1-.481.814q-.315.338-.754.523a2.5 2.5 0 0 1-.985.185c-.364 0-.683-.061-.976-.185a2.16 2.16 0 0 1-.754-.523 2.4 2.4 0 0 1-.49-.814 3 3 0 0 1-.176-1.05q0-.574.18-1.045.181-.472.5-.806.319-.333.758-.517.44-.185.958-.186c.345 0 .673.062.967.186q.44.184.753.518.315.333.49.805.176.47.176 1.045m-1.406 0q0-.638-.254-1.004-.255-.366-.726-.366a.85.85 0 0 0-.731.366q-.26.365-.259 1.004-.001.638.259 1.013.259.374.731.374a.83.83 0 0 0 .726-.374q.254-.374.254-1.013"/></svg>