<svg width="1920" height="972" viewBox="0 0 1920 972" fill="none" xmlns="http://www.w3.org/2000/svg">
<g filter="url(#filter0_d_1_696)">
<path d="M1916.18 1C1278.01 1.00006 639.837 1.00011 1.6648 1.00017M1916.32 28.0059C1593.16 27.8063 1270.19 32.634 947.144 38.097C807.369 40.4745 666.622 39.6941 526.824 34.6849C351.827 28.4235 176.811 34.322 1.85355 28.0061M1916.45 54.6132C1824.89 54.6132 1733.29 53.6512 1641.74 54.1231C1559.92 54.5406 1478.34 63.597 1396.55 65.1579C1244.2 68.0617 1091.85 64.686 939.516 68.1162C804.305 71.1653 667.724 79.2417 532.529 66.9184C453.731 59.6588 375.765 56.3556 296.922 53.361C198.518 49.6223 100.304 59.7677 1.93306 54.6134M1916.58 80.8564C1826.33 80.8564 1735.84 78.7874 1645.63 81.0198C1560.85 83.1251 1476.63 97.8803 1391.94 101.674C1239.31 108.516 1087.76 88.9692 935.277 92.4538C801.103 95.4666 668.938 119.932 534.493 98.0438C455.907 85.2487 379.768 75.2303 300.66 72.3083C200.927 68.6785 101.793 86.3376 2.06438 80.8566M1916.71 106.592C1828.1 106.592 1738.82 103.289 1650.29 107.844C1561.77 112.4 1474.59 133.362 1386.34 140.131C1306.13 146.284 1227 144.633 1147.1 131.238C1075.5 119.224 1005.97 110.548 933.845 111.855C870.632 113.017 811.467 126.12 749.094 138.335C677.715 152.328 604.119 145.794 533.246 127.972C455.238 108.334 381.661 89.5499 302.091 87.4083C201.725 84.6859 102.636 111.293 2.19315 106.592M1916.84 131.964C1830.14 131.964 1742.1 127.517 1655.59 134.632C1563.14 142.218 1472.37 169.696 1380.14 180.004C1300.95 188.97 1221.15 182.825 1143.06 161.746C1073.34 143.198 1005.94 126.628 934.774 127.39C868.873 128.098 809.357 150.875 745.473 169.297C672.959 190.204 601.058 182.273 529.416 156.919C452.633 129.695 381.728 100.366 301.62 99.5857C201.09 98.5875 103.034 135.013 2.32001 131.946M1916.96 156.938C1832.31 157.047 1745.56 151.493 1661.25 161.203C1564.46 172.256 1470.02 206.358 1373.61 220.605C1292.7 232.547 1217.82 221.44 1139.58 191.439C1072.58 165.74 1007.69 140.005 937.562 139.95C868.214 139.95 806.695 174.161 741.008 199.135C666.179 227.574 597.002 219.298 523.573 184.942C448.839 149.987 380.175 108.716 299.637 109.623C199.263 110.857 103.108 157.773 2.44507 156.938M1917.09 181.512C1834.58 181.675 1749.12 175.505 1667.16 187.447C1565.95 202.184 1468.01 242.874 1367.18 261.241C1285.16 276.178 1213.81 260.207 1136.78 220.242C1073.22 187.265 1010.78 151.53 941.789 150.405C868.872 149.207 803.375 196.195 736.1 227.829C658.412 264.363 591.884 256.595 516.41 212.075C444.536 169.679 377.442 115.25 296.569 118.299C196.568 122.074 103.005 179.77 2.59474 181.512M1917.21 205.687C1836.81 205.905 1752.69 199.335 1672.96 213.255C1567.43 231.677 1465.97 278.755 1360.96 301.224C1277.29 319.137 1209.96 298.629 1134.5 248.138C1074.82 208.21 1014.84 162.093 946.795 159.661C870.307 156.957 799.602 217.992 730.801 255.506C694.762 275.053 656.763 293.366 617.348 289.155C578.771 285.017 542.151 262.857 508.312 238.337C440.1 189.026 373.55 121.148 292.7 126.339C193.151 132.746 102.78 201.186 2.67547 205.633M1917.26 229.444C1838.82 229.716 1756.06 222.983 1678.52 238.518C1568.99 260.406 1464.38 313.565 1355.49 339.917C1269.92 360.644 1206.46 335.979 1132.97 275.089C1077.26 228.917 1019.73 172.492 952.291 168.662C872.497 164.143 795.762 239.535 725.67 282.203C688.954 304.563 648.455 328.139 607.294 322.948C568.713 318.084 532.457 291.514 500.078 263.963C435.52 209.008 369.58 127.427 288.542 134.705C189.43 143.635 102.608 222.475 2.78216 229.444M1917.36 252.783C1840.8 253.11 1759.26 246.376 1683.71 263.056C1570.61 288.047 1463.22 346.814 1350.97 376.687C1308.23 388.049 1267.69 394.619 1225.68 374.691C1191.44 358.447 1161.25 329.935 1132.12 301.114C1080.01 249.589 1024.94 183.508 957.657 178.335C874.929 171.965 792.066 261.023 720.853 308.047C683.51 332.712 640.537 361.279 597.802 355.235C559.046 349.79 523.248 319.173 492.239 288.936C431.075 229.335 365.855 134.995 284.387 144.124C185.645 155.213 102.488 243.818 2.84557 252.874M1917.47 275.741C1842.51 276.086 1762.08 269.389 1688.27 286.831C1572.31 314.236 1462.89 378.048 1347.83 410.735C1304.94 422.913 1264.54 430.463 1222.72 407.849C1188.79 389.391 1159.79 357.721 1132.06 326.069C1082.97 270.115 1030.15 195.74 962.527 189.479C919.311 185.468 876.029 216.23 838.853 242.274C797.609 271.168 757.981 304.09 716.751 333.02C678.86 359.591 633.819 392.186 589.645 385.381C550.606 379.373 515.351 345.634 485.434 313.147C427.042 249.625 362.992 144.614 280.748 155.249C182.187 167.954 102.571 265.378 2.94831 275.814M1917.56 298.283C1843.95 298.628 1764.37 291.912 1691.99 309.68C1573.99 338.628 1463.31 406.797 1346.33 441.516C1303.65 454.22 1262.94 462.333 1221.54 438.104C1187.64 418.267 1159.5 383.874 1132.75 350.044C1085.68 290.533 1034.81 209.987 966.356 203.036C921.954 198.572 877.422 231.893 839.668 259.444C797.053 290.569 756.241 325.997 713.626 357.159C675.211 385.272 628.853 420.427 583.494 413.258C544.042 407.014 509.374 371.17 480.259 336.814C423.646 270.043 361.499 157.5 277.942 168.843C179.385 182.219 102.865 287.466 3.04511 298.21M1917.65 320.425C1845.07 320.716 1765.98 313.873 1694.66 331.496C1575.67 360.898 1464.71 432.641 1346.82 468.304C1304.73 481.009 1263.26 489.285 1222.44 464.892C1188.27 444.475 1160.5 408.231 1134.23 372.967C1087.89 310.643 1038.5 226.866 968.609 220.115C923.223 215.723 878.573 249.389 840.294 278.192C796.783 310.861 755.222 348.103 711.724 380.807C672.822 410.064 626.268 445.781 579.978 438.667C540.062 432.532 505.976 396.035 477.212 360.208C421.022 290.243 361.799 174.851 276.287 186.085C177.475 199.062 103.315 310.788 3.07696 320.389M1917.74 342.204C1845.43 342.821 1766.59 335.126 1695.58 353.093C1577.4 383.058 1467.87 456.943 1350.93 493.441C1308.95 506.526 1267.51 514.367 1226.72 490.265C1192.05 469.738 1163.73 433.058 1137.08 397.359C1089.89 334.128 1039.96 249.28 969.155 241.367C923.446 236.267 879.061 269.517 840.611 298.773C797.035 331.95 755.558 369.918 711.996 403.112C672.911 432.913 626.594 468.141 579.956 460.518C539.771 453.948 505.884 417.378 477.065 381.152C420.644 310.207 362.546 196.339 276.352 206.92C177.257 219.044 103.883 333.819 3.22668 342.204M1917.84 363.493C1845.22 364.618 1766.61 354.908 1695.35 374.128C1579.28 405.436 1472.23 480.537 1357.43 518.323C1314.96 532.316 1274.6 539.594 1233.23 515.329C1197.93 494.657 1168.62 458.358 1141 422.968C1092.25 360.426 1040.24 274.726 969.413 263.927C923.975 256.994 879.43 290.334 841.312 319.572C798.268 352.585 757.415 390.59 714.384 423.639C675.38 453.603 629.061 488.559 582.483 479.502C542.412 471.716 508.031 434.619 478.814 398.793C422.108 329.282 362.358 217.556 277.201 227.828C177.865 239.825 104.255 355.253 3.35891 363.493M1917.92 384.419C1844.89 385.762 1766.48 373.348 1694.79 393.693C1581.09 425.962 1476.85 502.043 1364.47 540.701C1321.64 555.474 1282.23 562.063 1240.39 538.106C1204.55 517.579 1174.07 482.225 1145.43 447.106C1095.06 385.399 1040.67 300.007 969.899 286.595C924.865 278.047 880.662 310.697 842.89 339.808C800.575 372.477 760.586 410.245 718.297 442.895C679.413 472.914 633.528 506.871 587.155 496.526C547.039 487.56 512.045 450.3 482.18 414.855C424.736 346.796 363.059 237.865 278.552 247.992C178.778 259.934 104.759 376.107 3.42391 384.31M1917.99 404.946C1844.46 406.235 1766.07 390.536 1693.88 411.915C1582.79 444.784 1481.6 521.645 1371.87 560.974C1328.87 576.383 1290.2 582.173 1248.01 558.905C1211.54 538.796 1179.94 504.458 1150.19 469.975C1097.75 409.375 1041.47 325.217 970.49 309.337C925.981 299.391 882.555 330.625 845.154 359.537C803.767 391.552 764.8 428.994 723.439 461.045C684.7 491.082 639.698 523.351 593.599 511.863C553.291 501.79 517.58 464.675 486.826 429.72C428.247 363.167 364.406 257.575 280.351 267.648C179.965 279.681 105.379 396.634 3.4325 404.892M1918.08 425.073C1843.95 426.089 1765.57 406.615 1692.73 428.921C1584.43 462.079 1486.48 539.63 1379.58 579.177C1336.61 595.112 1298.46 600.067 1256.07 577.816C1218.95 558.324 1186.25 525.184 1155.3 491.753C1100.5 432.532 1042.53 350.389 971.27 332.222C885.273 310.28 799.053 424.474 729.722 478.305C691.13 508.287 647.339 538.324 601.633 525.746C561 514.548 524.547 477.796 492.745 443.367C432.698 378.375 366.51 276.559 282.667 286.686C181.538 298.882 106.238 416.688 3.561 425.073M1918.15 444.783C1843.37 445.345 1764.95 421.697 1691.36 444.783C1585.97 477.959 1491.41 555.874 1387.49 595.548C1344.67 611.882 1306.89 615.947 1264.39 594.985C1226.59 576.309 1192.77 544.639 1160.62 512.261C1103.45 454.728 1043.79 375.326 972.155 354.908C887.45 330.806 804.95 441.697 736.904 494.657C699.278 523.895 655.392 553.369 610.923 538.305C569.638 524.33 533.159 490.446 499.562 455.963C437.808 392.622 369.114 294.925 285.273 305.161C183.28 317.594 107.174 436.289 3.63375 444.91M1918.22 464.111C1842.73 464.111 1764.21 435.926 1689.8 459.864C1587.42 492.805 1496.34 571.046 1395.49 610.502C1220.34 679.088 1127.52 425.889 973.118 377.431C889.892 351.278 811.573 458.177 744.758 510.065C707.304 539.104 665.104 565.547 621.19 549.63C579.38 534.476 542.054 501.335 507.118 467.505C443.457 405.798 372.14 312.548 288.126 322.948C185.191 335.652 108.186 455.273 3.68926 464.112M1918.29 483.023C1842.06 482.261 1763.39 449.447 1688.09 474.094C1588.76 506.599 1501.18 585.021 1403.48 624.133C1231.96 692.773 1126.08 451.716 974.148 399.791C892.349 371.805 818.739 473.967 753.142 524.857C715.847 553.787 675.478 576.745 632.185 560.103C589.812 543.768 551.546 511.463 515.217 478.341C449.531 418.448 375.538 329.681 291.166 340.316C187.223 353.402 109.251 473.894 3.74512 483.023M1918.35 501.536C1841.37 499.993 1762.51 462.388 1686.27 487.652C1589.99 519.558 1506.01 598.071 1411.34 636.656C1243.46 705.097 1124.69 477.216 975.202 421.825C894.856 392.06 826.26 489.195 761.815 539.087C724.652 567.853 686.272 587.127 643.641 569.94C600.677 552.535 561.431 520.938 523.67 488.632C455.893 430.555 379.21 346.415 294.414 357.287C189.449 370.772 110.445 492.171 3.89074 501.609M1918.42 519.649C1840.68 517.307 1761.58 474.893 1684.33 500.683C1591.02 531.863 1510.52 610.412 1418.91 648.344C1254.6 716.385 1123.33 502.189 976.267 443.477C897.362 411.97 833.925 503.932 770.579 552.862C733.575 581.447 697.05 596.928 655.121 579.123C611.553 560.611 571.287 529.812 532.121 498.305C462.239 442.043 382.894 362.55 297.568 373.693C191.501 387.559 111.517 509.812 3.90087 519.649M1918.48 537.344C1840.02 534.222 1760.63 487.107 1682.49 513.332C1592.05 543.696 1514.97 622.227 1426.28 659.415C1265.22 726.93 1121.95 526.672 977.251 464.675C899.773 431.462 841.509 518.251 779.195 566.31C742.35 594.713 707.601 606.401 666.467 588.089C622.295 568.452 581.022 538.36 540.465 507.725C468.545 453.386 386.59 378.376 300.68 389.755C193.551 404.002 112.575 527.253 3.9101 537.308M1918.54 554.658C1839.3 550.792 1759.69 499.158 1680.6 525.746C1592.88 555.239 1519.07 633.716 1433.14 670.105C1275.18 737.002 1120.59 550.647 978.3 485.365C902.102 450.409 849.066 532.389 787.611 579.486C750.884 607.617 717.94 615.784 677.494 596.946C632.745 576.183 590.478 546.691 548.608 516.944C474.73 464.475 390.284 393.875 303.777 405.545C195.64 420.155 113.711 544.295 4.05054 554.658M1918.6 571.554C1838.61 567.053 1758.75 511.172 1678.77 538.033C1593.56 566.636 1522.82 645.113 1439.47 680.649C1358.6 715.132 1272.2 676.202 1196.3 634.604C1123.11 594.477 1053.46 541.844 979.198 505.455C903.948 468.576 856.463 546.69 795.468 592.571C714.472 653.461 630.817 576.237 556.153 526.163C480.502 475.491 393.711 409.101 306.633 421.025C197.541 435.944 114.712 560.955 4.08196 571.573M1918.65 588.071C1837.91 583.043 1758.03 523.296 1677.02 550.357C1594.08 578.089 1526.18 656.511 1445.06 691.267C1364.94 725.641 1276.28 688.308 1200.04 650.213C1125.38 612.899 1054.26 563.624 979.999 524.857C905.737 486.091 862.846 560.375 802.632 605.603C723.477 665.041 636.323 582.009 562.967 535.456C485.742 486.454 396.777 424.093 309.222 436.181C199.279 451.371 115.631 577.218 4.19082 588.071M1918.71 604.169C1837.21 598.724 1757.37 535.638 1675.43 562.862C1594.46 589.74 1529.07 668.127 1450.1 702.211C1370.6 736.422 1279.92 700.614 1203.35 665.676C1127.39 630.993 1054.86 584.677 980.705 543.533C945.721 524.131 920.15 523.333 886.545 548.36C859.232 568.706 836.193 598.252 808.921 618.743C772.536 646.112 743.442 645.349 705.09 625.004C659.005 600.521 614.086 572.372 568.852 545.021C490.346 497.688 399.471 438.958 311.518 451.154C200.818 466.508 116.469 593.189 4.23221 604.169M1918.76 619.886C1836.5 614.441 1756.89 548.342 1673.99 575.656C1594.62 601.809 1531.48 680.486 1454.11 713.699C1375.01 747.656 1282.68 713.336 1205.82 681.03C1128.95 648.725 1055.09 604.804 981.164 561.246C947.001 541.119 922.085 538.269 888.772 563.17C862.36 582.916 840.383 612.064 814.038 631.955C777.852 659.288 749.199 656.384 711.508 635.367C665.191 609.541 619.581 581.446 573.5 554.858C494.017 509.013 401.391 453.549 313.305 465.782C201.994 481.227 117.077 608.67 4.29537 619.723M1918.81 635.167C1835.78 629.867 1756.61 561.481 1672.78 588.868C1594.6 614.441 1533.43 693.716 1457.14 725.949C1378.14 759.361 1284.82 726.602 1207.49 696.602C1129.53 666.383 1055.04 624.296 981.41 578.342C947.935 557.47 923.29 553.078 890.229 577.979C864.533 597.308 843.446 626.274 817.83 645.784C781.818 673.208 753.184 668.761 716.061 646.946C669.671 619.722 623.528 591.555 576.745 565.529C496.75 521.009 402.596 468.413 314.576 480.554C202.827 495.981 117.501 624.15 4.2405 635.167M1918.86 650.068C1835.07 645.258 1756.57 575.221 1671.81 602.681C1594.44 627.745 1534.61 707.365 1459.22 739.217C1380.48 772.466 1285.94 740.414 1208.42 712.283C1129.67 683.698 1054.86 642.754 981.556 594.314C948.621 572.535 923.839 567.272 890.952 592.336C865.787 611.519 845.364 640.503 820.24 659.869C784.361 687.528 755.325 682.301 718.636 659.487C672.33 630.703 625.841 602.336 578.542 576.746C498.314 533.351 403.081 483.114 315.419 495.074C203.403 510.338 117.868 639.197 4.34057 650.068M1918.89 664.587C1834.68 660.267 1756.72 589.468 1671.44 617.181C1594.33 642.227 1534.86 721.775 1459.72 753.445C1381.06 786.585 1286.08 753.881 1208.54 726.348C1129.52 698.29 1054.94 657.654 981.548 608.996C948.733 587.217 923.609 582.68 890.947 607.58C865.955 626.637 845.663 655.367 820.671 674.478C784.91 701.811 755.343 696.729 718.996 673.262C672.885 643.498 626.342 614.913 578.844 589.577C499.006 546.981 402.539 497.306 315.557 509.72C203.704 525.655 117.6 652.336 4.37197 664.533M1918.94 678.871C1834.54 674.769 1756.81 603.498 1671.33 631.538C1594.34 656.802 1534.56 735.678 1459.36 767.148C1380.7 800.071 1285.93 765.932 1208.51 738.219C1129.74 710.015 1055.48 669.452 981.595 623.099C911.655 579.232 877.438 646.693 820.226 688.762C784.461 715.06 754.709 710.269 718.694 686.711C672.781 656.675 626.318 628.162 578.834 603.116C499.465 561.265 401.748 511.354 315.396 524.821C204.029 542.208 116.835 663.735 4.37829 678.599M1918.98 692.937C1834.34 688.98 1756.79 617.182 1671.04 645.458C1594.05 670.867 1534.03 748.909 1458.79 780.089C1380.13 812.757 1285.63 777.312 1208.33 749.507C1129.86 721.286 1055.89 680.904 981.584 636.892C912.243 595.802 876.784 662.065 819.523 702.229C783.751 727.384 753.734 722.738 718.038 699.144C672.337 668.943 626.008 640.649 578.54 616.039C499.494 575.04 400.809 525.656 315.18 540.03C204.377 558.615 116.08 674.86 4.45922 692.084M1919.02 706.748C1834.09 702.9 1756.65 630.521 1670.59 658.925C1593.7 684.297 1533.31 761.449 1458.01 792.303C1379.35 824.427 1285.15 788.092 1207.99 760.27C1129.9 732.138 1056.09 692.065 981.532 650.485C912.696 612.136 876.007 676.929 818.59 715.223C782.719 739.126 752.476 734.48 717.046 710.904C671.597 680.649 625.363 652.681 577.978 628.652C499.136 588.633 399.859 540.465 314.818 555.584C204.565 575.167 115.217 685.949 4.45805 705.296M1919.06 720.324C1833.77 716.512 1756.48 643.571 1669.98 671.993C1593.15 697.22 1532.39 773.501 1457.02 803.737C1378.38 835.298 1284.66 798.147 1207.53 770.415C1129.86 742.466 1056.27 702.81 981.426 663.735C913.123 628.072 875.121 691.158 817.428 727.384C781.432 749.998 750.948 745.188 715.744 721.685C670.649 691.277 624.396 664.219 577.188 640.631C498.418 601.719 398.87 555.33 314.325 571.138C204.794 591.519 114.314 696.712 4.53514 717.892M1919.09 733.644C1833.41 729.833 1756.14 656.256 1669.21 684.642C1592.45 709.669 1531.27 784.934 1455.81 814.553C1377.19 845.407 1283.87 807.675 1206.88 780.07C1129.63 752.411 1056.25 713.299 981.238 676.765C913.453 643.734 874.059 704.951 816.01 738.98C779.833 760.197 749.122 755.115 714.118 731.721C669.295 701.514 623.212 674.963 576.115 652.209C497.311 614.514 397.789 570.647 313.698 586.872C204.875 607.871 113.33 707.31 4.5157 730.142M1919.13 746.675C1833.01 742.846 1755.75 668.634 1668.33 696.801C1591.62 721.52 1530 795.696 1454.5 824.607C1375.92 854.699 1283.09 816.513 1206.17 789.144C1129.49 761.92 1056.14 723.426 981.062 689.487C913.769 659.051 872.903 718.181 814.443 749.906C778.059 769.652 747.107 764.189 712.25 740.831C667.733 710.913 621.86 684.96 574.92 663.135C495.991 626.836 396.789 585.892 313.059 602.498C204.996 623.914 112.424 717.491 4.60095 741.72M1919.17 759.452C1832.57 755.532 1755.24 680.612 1667.31 708.635C1590.65 732.918 1528.57 805.914 1453 834.045C1374.46 863.265 1282.13 824.807 1205.39 797.747C1129.25 770.886 1055.97 733.263 980.885 701.938C914.07 674.079 871.65 730.976 812.739 760.269C776.122 778.418 744.928 772.538 710.178 749.379C665.957 719.816 620.278 694.556 573.484 673.788C494.309 638.888 395.683 601.41 312.26 618.306C204.983 640.085 111.423 727.582 4.61714 753.064M1919.2 771.939C1832.09 767.91 1754.77 692.264 1666.19 719.905C1589.58 743.826 1527 815.588 1451.34 842.848C1372.86 871.106 1281.11 832.521 1204.47 805.805C1128.86 779.435 1055.66 742.755 980.653 714.08C914.303 688.671 870.236 743.245 810.847 770.015C773.969 786.622 742.533 780.106 707.865 757.311C663.954 728.196 618.495 703.707 571.887 684.061C492.414 650.757 394.605 617.145 311.423 634.242C204.943 656.021 110.463 737.51 4.67248 764.044M1919.24 784.117C1831.57 779.943 1754.17 703.571 1665.03 730.831C1588.38 754.189 1525.3 824.717 1449.54 851.033C1371.14 878.257 1280.03 839.69 1203.39 813.374C1128.35 787.566 1055.2 751.939 980.287 725.931C914.4 703.045 868.593 755.079 808.699 779.199C771.547 794.154 739.881 787.003 705.24 764.317C661.65 735.713 616.422 712.08 570.019 693.662C490.249 662.064 393.445 632.59 310.45 649.886C204.809 671.792 109.446 746.93 4.66993 774.371M1919.27 795.932C1831.06 791.631 1753.56 714.534 1663.63 741.34C1587.1 764.172 1523.48 833.32 1447.64 858.638C1369.33 884.791 1278.84 846.315 1202.38 820.525C1127.88 795.334 1054.8 760.887 980.052 737.529C914.59 717.056 866.948 766.567 806.575 787.911C769.149 801.178 737.228 793.355 702.574 770.832C659.315 742.8 614.333 720.09 568.165 702.973C487.885 673.208 392.301 648.344 309.438 665.604C204.621 687.383 108.468 756.204 4.69373 784.426M1919.3 807.549C1830.45 802.993 1752.8 725.152 1662.23 751.45C1585.71 773.646 1521.53 841.415 1445.63 865.68C1367.38 890.672 1277.56 852.413 1201.21 827.059C1127.28 802.503 1054.25 769.363 979.722 748.655C914.657 730.506 865.114 777.349 804.274 795.843C766.56 807.367 734.395 798.71 699.69 776.496C656.762 749.092 612.034 727.365 566.12 711.612C485.358 683.808 391.127 663.717 308.371 680.995C204.378 702.683 107.501 764.935 4.71337 793.81M1919.33 818.782C1829.84 813.991 1752.06 735.405 1660.73 761.122C1584.27 782.665 1519.56 849 1443.52 872.159C1365.37 895.97 1276.25 857.984 1200.02 833.193C1126.62 809.327 1053.7 777.584 979.418 759.525C914.698 743.79 863.212 787.802 801.894 803.537C763.905 813.283 731.51 803.773 696.686 781.758C654.095 755.036 609.63 734.358 563.996 720.051C482.766 694.352 389.996 679.252 307.279 696.457C204.096 717.891 106.574 773.573 4.73379 803.029M1919.36 829.672C1829.24 824.626 1751.26 745.297 1659.22 770.397C1582.74 791.25 1517.48 856.115 1441.34 878.13C1363.29 900.69 1274.88 863.085 1198.71 838.874C1125.83 815.697 1053.02 785.479 978.992 770.052C914.562 756.64 861.095 797.784 799.323 810.615C761.046 818.583 728.421 808.165 693.465 786.477C651.208 760.446 607.009 740.836 561.669 728.001C479.906 704.534 388.744 694.588 306.053 711.666C203.785 732.828 105.645 781.795 4.75087 811.741M1919.38 840.216C1828.62 834.899 1750.43 754.915 1657.63 779.253C1581.15 799.381 1515.33 862.776 1439.1 883.593C1361.15 904.827 1273.45 867.694 1197.38 844.1C1124.99 821.65 1052.32 793.047 978.631 780.233C914.439 769.072 859.003 807.294 796.817 817.221C758.292 823.374 725.409 812.013 690.322 790.597C648.396 765.307 604.469 746.819 559.447 735.514C477.177 714.407 387.65 709.706 304.958 726.657C203.433 747.456 104.874 789.653 4.85925 820.035M1919.41 850.38C1827.98 844.79 1749.56 763.99 1656.01 787.693C1579.54 807.094 1513.13 868.965 1436.8 888.493C1358.97 908.457 1272.01 871.742 1195.95 848.801C1124.05 827.022 1051.55 800.18 978.175 789.962C914.114 781.032 856.762 816.278 794.083 823.283C755.269 827.621 722.248 815.262 686.83 794.136C645.231 769.599 601.577 752.259 556.89 742.52C369.215 700.25 185.872 771.558 4.71284 827.821M1919.43 860.217C1827.32 854.319 1748.67 772.811 1654.35 795.77C1577.87 814.391 1510.89 874.718 1434.45 893.103C1356.75 911.797 1270.53 875.535 1194.63 853.266C1123.14 832.231 1050.86 807.131 977.836 799.563C913.799 792.866 854.623 824.972 791.465 829.146C752.416 831.687 719.111 818.256 683.495 797.439C642.371 773.247 598.752 757.82 554.503 749.29C371.636 714.026 181.416 779.49 4.78878 835.371M1919.45 869.655C1826.66 863.448 1747.77 781.232 1652.67 803.428C1576.18 821.342 1508.63 880.054 1432.09 897.205C1354.52 914.574 1269.04 878.802 1193.23 857.277C1122.13 837.041 1050.11 813.719 977.43 808.619C913.285 804.118 852.418 833.193 788.767 834.409C749.483 835.153 715.959 820.67 680.066 800.107C639.212 776.713 595.892 762.611 552.022 755.606C468.448 742.266 383.827 753.627 301.093 769.943C201.822 789.526 102.415 811.015 4.79894 842.54M1919.47 878.711C1826.8 872.304 1748.01 789.943 1653 810.234C1576.8 826.568 1509.11 882.994 1433.17 900.108C1356.41 917.405 1272.65 883.085 1197.51 862.358C1124.87 842.394 1051.28 820.089 977.008 817.294C911.077 814.807 846.985 842.285 781.198 839.073C741.488 837.131 708.308 819.417 671.82 799.744C633.92 779.308 593.948 767.602 553.556 762.066C467.583 750.287 382.461 767.656 297.653 784.045C199.761 802.956 100.971 817.512 4.76482 849.128M1919.5 887.368C1826.19 880.653 1747.08 797.602 1651.36 817.113C1575.15 832.648 1506.9 887.586 1430.83 903.448C1354.23 919.347 1271.13 885.517 1196.1 865.462C1123.81 846.115 1050.51 825.534 976.637 825.534C910.334 825.534 844.801 849.364 778.454 843.284C738.683 839.654 705.218 820.924 668.453 801.668C630.809 781.958 591.11 771.486 551.07 767.348C464.833 758.437 381.214 781.359 296.416 797.294C199.16 815.57 100.349 823.356 4.82298 855.371M1919.52 895.608C1825.5 888.584 1746.22 804.862 1649.69 823.61C1573.45 838.42 1504.66 891.814 1428.48 906.443C1352.03 921.162 1269.59 887.568 1194.6 868.166C1122.71 849.527 1049.69 830.797 976.225 833.447C909.455 835.861 842.615 856.115 775.695 847.204C735.862 841.886 702.126 822.158 665.125 803.319C627.803 784.317 588.296 775.079 548.636 772.339C462.187 766.331 379.978 794.698 295.205 810.198C198.557 827.875 99.858 828.855 4.89266 861.27M1919.53 903.43C1824.86 896.171 1745.25 811.741 1648.03 829.708C1571.77 843.81 1502.44 895.753 1426.14 909.075C1349.84 922.396 1268.07 889.256 1193.28 870.526C1121.57 852.558 1048.91 835.589 975.85 840.907C908.508 845.807 840.506 862.431 773.014 850.725C733.093 843.81 699.113 823.011 661.767 804.608C624.422 786.205 585.427 778.292 546.146 776.913C459.712 773.845 378.62 807.53 293.938 822.594C197.845 839.691 99.192 833.883 4.86716 866.769M1919.55 910.835C1824.23 903.212 1744.34 818.274 1646.42 835.407C1570.12 848.819 1500.28 899.183 1423.87 911.379C1347.77 923.521 1266.51 890.598 1191.86 872.504C1120.36 855.19 1048.11 839.999 975.42 847.93C907.426 855.353 838.395 868.366 770.291 853.919C730.483 845.462 696.098 823.574 658.489 805.588C621.573 787.947 582.584 781.159 543.735 781.105C457.315 780.96 377.286 819.799 292.721 834.463C197.079 851.052 98.6306 838.474 4.89337 871.887M1919.57 917.786C1823.61 909.909 1743.48 824.263 1644.85 840.743C1568.51 853.447 1498.16 902.45 1421.64 913.339C1345.62 924.229 1265.17 891.56 1190.51 874.101C1119.16 857.476 1047.28 843.991 975.028 854.5C906.315 864.482 836.376 873.883 767.633 856.75C727.831 846.859 693.148 823.864 655.262 806.296C618.522 789.272 579.871 783.7 541.388 784.934C455.115 787.675 375.948 831.487 291.502 845.806C196.402 861.923 98.1726 842.576 4.87748 876.66M1919.58 924.302C1823.02 916.153 1742.6 829.926 1643.32 845.68C1566.94 857.822 1496.04 905.245 1419.49 915.1C1343.62 924.864 1263.82 892.25 1189.2 875.444C1117.99 859.455 1046.47 847.658 974.646 860.689C905.175 873.285 834.354 879.129 765.12 859.364C725.35 848.021 690.369 823.937 652.152 806.732C615.642 790.398 577.196 785.897 539.051 788.383C453.019 793.955 374.554 842.522 290.252 856.533C195.602 872.268 97.6321 846.206 4.79237 880.962M1919.6 930.363C1822.5 921.96 1741.79 835.117 1641.87 850.235C1565.44 861.814 1494.14 907.804 1417.41 916.57C1341.67 925.209 1262.45 892.65 1187.96 876.424C1116.84 860.907 1045.69 850.888 974.304 866.388C904.035 881.633 832.558 883.992 762.713 861.669C723.016 848.965 687.698 823.792 649.23 806.986C612.908 791.123 574.681 787.838 536.941 791.504C451.228 799.835 373.331 852.885 289.188 866.714C194.869 882.159 97.2641 849.418 4.84073 885.009M1919.61 935.935C1821.9 927.332 1740.97 839.908 1640.49 854.427C1564 865.462 1492.25 910.091 1415.43 917.786C1339.81 925.354 1261.2 892.795 1186.77 877.077C1115.73 862.068 1044.93 853.719 973.956 871.633C902.983 889.546 830.784 888.493 760.382 863.702C720.772 849.745 685.103 823.773 646.424 807.04C610.448 791.45 572.175 789.49 534.906 794.336C449.551 805.225 372.114 862.558 288.143 876.206C194.235 891.47 96.8767 852.104 4.85698 888.657M1919.56 941.126C1821.31 932.341 1740.21 844.336 1639.13 858.293C1562.66 868.801 1490.48 912.087 1413.56 918.784C1338.1 925.354 1260 892.686 1185.66 877.422C1114.66 862.903 1044.2 856.133 973.648 876.406C901.77 897.041 829.13 892.74 758.21 865.516C718.674 850.38 682.695 823.428 643.79 806.931C607.963 791.74 569.895 790.869 533.016 796.695C492.777 803.065 453.589 817.657 415.007 833.846C373.374 851.287 330.577 877.894 287.15 884.936C193.561 900.127 96.5016 854.228 4.85959 891.869M1919.58 945.663C1820.86 936.734 1739.61 848.166 1637.94 861.651C1561.39 871.815 1488.83 913.903 1411.81 919.601C1336.47 925.246 1258.92 892.378 1184.65 877.495C1113.65 863.303 1043.48 858.13 973.35 880.69C900.702 904.066 827.568 896.643 756.117 867.06C716.748 850.725 680.459 822.957 641.356 806.696C605.677 791.868 567.786 791.977 531.272 798.801C491.118 806.278 452.162 822.141 413.812 839.364C372.49 857.913 329.633 885.898 286.22 892.995C192.923 908.222 96.1376 855.88 4.86105 894.81M1919.6 949.782C1820.43 940.707 1738.96 851.613 1636.85 864.699C1560.25 874.536 1487.33 915.353 1410.24 920.235C1335 925.008 1257.98 891.759 1183.76 877.258C1112.74 863.41 1042.83 859.69 973.13 884.518C899.658 910.598 826.176 900.253 754.209 868.401C714.981 851.051 678.422 822.43 639.121 806.349C603.59 791.83 565.929 792.846 529.685 800.56C489.629 809.09 450.879 826.15 412.733 844.317C371.695 863.864 328.792 893.084 285.379 900.289C192.389 915.716 95.7979 857.004 4.8341 897.331M1919.62 953.394C1820.03 944.32 1738.43 854.608 1635.88 867.385C1559.19 876.95 1485.89 916.642 1408.72 920.726C1333.55 924.719 1257 890.979 1182.86 876.769C1111.83 863.175 1042.12 860.834 972.854 887.785C898.638 916.66 824.957 903.593 752.474 869.636C713.374 851.287 676.572 821.922 637.112 805.987C601.701 791.704 564.178 793.518 528.283 802.049C488.286 811.559 449.754 829.708 411.785 848.746C370.978 869.237 328.052 899.455 284.587 906.824C191.785 922.577 95.4022 857.639 4.84528 899.564M1919.63 956.48C1819.66 947.405 1737.98 857.131 1635.03 869.709C1558.32 879.074 1484.68 917.713 1407.44 921.162C1332.35 924.447 1256.31 890.108 1182.17 876.097C1111.09 862.667 1041.53 861.578 972.668 890.617C897.695 922.251 823.961 906.715 750.936 870.653C712.005 851.414 674.987 821.378 635.381 805.552C600.077 791.432 562.743 793.936 527.105 803.192C487.165 813.592 448.811 832.721 411.006 852.558C370.389 873.883 327.507 904.882 283.923 912.45C191.323 928.694 95.0292 857.64 4.84048 901.415M1919.65 959.057C1820.17 949.983 1738.75 859.709 1636.39 871.415C1555.51 880.653 1477.49 922.378 1395.83 921.525C1326.01 920.799 1255.8 889.492 1186.77 876.025C1113.43 861.723 1043.3 862.123 972.493 892.74C893.981 926.607 820.17 908.802 744.132 868.529C710.046 850.489 677.536 825.879 643.202 808.982C606.87 791.105 567.086 792.847 529.843 802.775C487.58 814.028 447.177 835.444 407.373 857.222C367.252 879.256 324.636 910.272 281.29 917.532C189.629 932.796 93.8457 857.44 4.8619 902.886M1919.66 961.089C1819.9 952.142 1738.47 861.269 1635.84 872.993C1554.93 882.249 1476.55 922.994 1394.91 921.633C1325.14 920.453 1255.29 888.275 1186.3 874.79C1112.9 860.452 1042.79 861.868 972.342 894.482C893.047 931.216 819.61 911.324 742.938 869.073C709.008 850.38 676.403 825.552 641.977 808.637C605.724 790.742 566.115 792.847 529.087 803.337C486.855 815.297 446.615 837.639 406.935 859.999C366.869 882.576 324.269 913.938 280.818 921.561C189.333 937.496 93.4148 856.496 4.8541 904.137M1919.66 962.541C1819.71 953.739 1738.35 862.322 1635.42 874.227C1554.5 883.592 1475.94 923.466 1394.19 921.669C1324.45 920.145 1254.92 886.932 1185.96 873.338C1112.52 858.819 1042.31 861.124 972.321 895.698C892.269 935.227 819.409 913.666 742.077 869.636C708.224 850.38 675.538 825.297 641.084 808.183C604.858 790.197 565.595 792.466 528.596 803.446C443.115 828.855 366.812 908.402 280.46 924.446C189.14 941.416 92.9417 854.953 4.85837 904.99M1919.67 963.464C1819.55 954.843 1738.22 862.882 1635.17 875.078C1554.24 884.679 1475.41 923.772 1393.7 921.685C1323.94 919.87 1254.72 885.496 1185.78 871.666C1112.31 856.929 1041.86 859.905 972.285 896.349C891.542 938.655 819.487 915.841 741.414 870.033C707.838 850.377 675.068 824.333 640.538 807.89C603.862 790.449 565.778 791.864 528.383 803.335C442.76 829.615 366.884 909.235 280.231 926.44C189.037 944.589 92.4 852.845 4.91491 905.532M1919.67 963.812C1819.45 955.445 1738.26 862.939 1635.11 875.589C1554.18 885.517 1475.24 923.957 1393.37 921.706C1323.6 919.782 1254.63 883.956 1185.7 869.8C1112.24 854.718 1041.42 858.184 972.259 896.461C890.905 941.525 819.856 917.895 741.03 870.344C669.019 826.931 609.621 777.511 528.447 802.956C442.602 829.871 367.081 908.82 280.13 927.405C189.048 946.879 91.8813 850.18 4.80893 905.626" stroke="url(#paint0_linear_1_696)" stroke-width="0.387841" stroke-miterlimit="10" shape-rendering="crispEdges"/>
</g>
<defs>
<filter id="filter0_d_1_696" x="-2.33618" y="0.806152" width="1926.02" height="971.199" filterUnits="userSpaceOnUse" color-interpolation-filters="sRGB">
<feFlood flood-opacity="0" result="BackgroundImageFix"/>
<feColorMatrix in="SourceAlpha" type="matrix" values="0 0 0 0 0 0 0 0 0 0 0 0 0 0 0 0 0 0 127 0" result="hardAlpha"/>
<feOffset dy="4"/>
<feGaussianBlur stdDeviation="2"/>
<feComposite in2="hardAlpha" operator="out"/>
<feColorMatrix type="matrix" values="0 0 0 0 0 0 0 0 0 0 0 0 0 0 0 0 0 0 0.25 0"/>
<feBlend mode="normal" in2="BackgroundImageFix" result="effect1_dropShadow_1_696"/>
<feBlend mode="normal" in="SourceGraphic" in2="effect1_dropShadow_1_696" result="shape"/>
</filter>
<linearGradient id="paint0_linear_1_696" x1="958.1" y1="-25.3846" x2="954.514" y2="691.294" gradientUnits="userSpaceOnUse">
<stop stop-color="#54FF9B"/>
<stop offset="1" stop-color="#54FF9B" stop-opacity="0"/>
</linearGradient>
</defs>
</svg>
